999
dxfrw 0.6.3
  0
SECTION
  2
HEADER
  9
$ACADVER
  1
AC1021
  9
$DWGCODEPAGE
  3
ANSI_1252
  9
$INSBASE
 10
0
 20
0
 30
0
  9
$EXTMIN
 10
0.0017878971321833
 20
-110.0035757942644
 30
0
  9
$EXTMAX
 10
240.0010426569316
 20
101.7994969901619
 30
0
  9
$LIMMIN
 10
0
 20
0
  9
$LIMMAX
 10
420
 20
297
  9
$ORTHOMODE
 70
    0
  9
$REGENMODE
 70
    1
  9
$FILLMODE
 70
    1
  9
$QTEXTMODE
 70
    0
  9
$MIRRTEXT
 70
    0
  9
$LTSCALE
 40
1
  9
$ATTMODE
 70
    0
  9
$TEXTSIZE
 40
2.5
  9
$TRACEWID
 40
15.68
  9
$TEXTSTYLE
  7
STANDARD
  9
$CLAYER
  8
0
  9
$CELTYPE
  6
BYLAYER
  9
$CECOLOR
 62
  256
  9
$CELTSCALE
 40
1
  9
$DISPSILH
 70
    0
  9
$DIMSCALE
 40
2.5
  9
$DIMASZ
 40
2.5
  9
$DIMEXO
 40
0.625
  9
$DIMDLI
 40
3.75
  9
$DIMRND
 40
0
  9
$DIMDLE
 40
0
  9
$DIMEXE
 40
1.25
  9
$DIMTP
 40
0
  9
$DIMTM
 40
0
  9
$DIMTXT
 40
2.5
  9
$DIMCEN
 40
2.5
  9
$DIMTSZ
 40
0
  9
$DIMTOL
 70
    0
  9
$DIMLIM
 70
    0
  9
$DIMTIH
 70
    0
  9
$DIMTOH
 70
    0
  9
$DIMSE1
 70
    0
  9
$DIMSE2
 70
    0
  9
$DIMTAD
 70
    1
  9
$DIMZIN
 70
    8
  9
$DIMBLK
  1

  9
$DIMASO
 70
    1
  9
$DIMSHO
 70
    1
  9
$DIMPOST
  1

  9
$DIMAPOST
  1

  9
$DIMALT
 70
    0
  9
$DIMALTD
 70
    3
  9
$DIMALTF
 40
0.03937
  9
$DIMLFAC
 40
1
  9
$DIMTOFL
 70
    1
  9
$DIMTVP
 40
0
  9
$DIMTIX
 70
    0
  9
$DIMSOXD
 70
    0
  9
$DIMSAH
 70
    0
  9
$DIMBLK1
  1

  9
$DIMBLK2
  1

  9
$DIMSTYLE
  2
STANDARD
  9
$DIMCLRD
 70
    0
  9
$DIMCLRE
 70
    0
  9
$DIMCLRT
 70
    0
  9
$DIMTFAC
 40
1
  9
$DIMGAP
 40
0.625
  9
$DIMJUST
 70
    0
  9
$DIMSD1
 70
    0
  9
$DIMSD2
 70
    0
  9
$DIMTOLJ
 70
    0
  9
$DIMTZIN
 70
    8
  9
$DIMALTZ
 70
    0
  9
$DIMALTTZ
 70
    0
  9
$DIMUPT
 70
    0
  9
$DIMDEC
 70
    2
  9
$DIMTDEC
 70
    2
  9
$DIMALTU
 70
    2
  9
$DIMALTTD
 70
    3
  9
$DIMTXSTY
  7
standard
  9
$DIMAUNIT
 70
    0
  9
$DIMADEC
 70
    0
  9
$DIMALTRND
 40
0
  9
$DIMAZIN
 70
    0
  9
$DIMDSEP
 70
   44
  9
$DIMATFIT
 70
    3
  9
$DIMFRAC
 70
    0
  9
$DIMLDRBLK
  1
STANDARD
  9
$DIMLUNIT
 70
    2
  9
$DIMLWD
 70
   -2
  9
$DIMLWE
 70
   -2
  9
$DIMTMOVE
 70
    0
  9
$DIMFXL
 40
1
  9
$DIMFXLON
 70
    0
  9
$DIMJOGANG
 40
0.7854
  9
$DIMTFILL
 70
    0
  9
$DIMTFILLCLR
 70
    0
  9
$DIMARCSYM
 70
    0
  9
$DIMLTYPE
  6

  9
$DIMLTEX1
  6

  9
$DIMLTEX2
  6

  9
$LUNITS
 70
    2
  9
$LUPREC
 70
    4
  9
$SKETCHINC
 40
1
  9
$FILLETRAD
 40
0
  9
$AUNITS
 70
    0
  9
$AUPREC
 70
    2
  9
$MENU
  1
.
  9
$ELEVATION
 40
0
  9
$PELEVATION
 40
0
  9
$THICKNESS
 40
0
  9
$LIMCHECK
 70
    0
  9
$CHAMFERA
 40
0
  9
$CHAMFERB
 40
0
  9
$CHAMFERC
 40
0
  9
$CHAMFERD
 40
0
  9
$SKPOLY
 70
    0
  9
$USRTIMER
 70
    1
  9
$ANGBASE
 50
0
  9
$ANGDIR
 70
    0
  9
$PDMODE
 70
   34
  9
$PDSIZE
 40
0
  9
$PLINEWID
 40
0
  9
$SPLFRAME
 70
    0
  9
$SPLINETYPE
 70
    2
  9
$SPLINESEGS
 70
    8
  9
$HANDSEED
  5
20000
  9
$SURFTAB1
 70
    6
  9
$SURFTAB2
 70
    6
  9
$SURFTYPE
 70
    6
  9
$SURFU
 70
    6
  9
$SURFV
 70
    6
  9
$UCSBASE
  2

  9
$UCSNAME
  2

  9
$UCSORG
 10
0
 20
0
 30
0
  9
$UCSXDIR
 10
1
 20
0
 30
0
  9
$UCSYDIR
 10
0
 20
1
 30
0
  9
$UCSORTHOREF
  2

  9
$UCSORTHOVIEW
 70
    0
  9
$UCSORGTOP
 10
0
 20
0
 30
0
  9
$UCSORGBOTTOM
 10
0
 20
0
 30
0
  9
$UCSORGLEFT
 10
0
 20
0
 30
0
  9
$UCSORGRIGHT
 10
0
 20
0
 30
0
  9
$UCSORGFRONT
 10
0
 20
0
 30
0
  9
$UCSORGBACK
 10
0
 20
0
 30
0
  9
$PUCSBASE
  2

  9
$PUCSNAME
  2

  9
$PUCSORG
 10
0
 20
0
 30
0
  9
$PUCSXDIR
 10
1
 20
0
 30
0
  9
$PUCSYDIR
 10
0
 20
1
 30
0
  9
$PUCSORTHOREF
  2

  9
$PUCSORTHOVIEW
 70
    0
  9
$PUCSORGTOP
 10
0
 20
0
 30
0
  9
$PUCSORGBOTTOM
 10
0
 20
0
 30
0
  9
$PUCSORGLEFT
 10
0
 20
0
 30
0
  9
$PUCSORGRIGHT
 10
0
 20
0
 30
0
  9
$PUCSORGFRONT
 10
0
 20
0
 30
0
  9
$PUCSORGBACK
 10
0
 20
0
 30
0
  9
$USERI1
 70
    0
  9
$USERI2
 70
    0
  9
$USERI3
 70
    0
  9
$USERI4
 70
    0
  9
$USERI5
 70
    0
  9
$USERR1
 40
0
  9
$USERR2
 40
0
  9
$USERR3
 40
0
  9
$USERR4
 40
0
  9
$USERR5
 40
0
  9
$WORLDVIEW
 70
    1
  9
$SHADEDGE
 70
    3
  9
$SHADEDIF
 70
   70
  9
$TILEMODE
 70
    1
  9
$MAXACTVP
 70
   64
  9
$PINSBASE
 10
33.87695204039666
 20
6.328186986370614
 30
0
  9
$PLIMCHECK
 70
    0
  9
$PEXTMIN
 10
0
 20
0
 30
0
  9
$PEXTMAX
 10
0
 20
0
 30
0
  9
$GRIDMODE
 70
    1
  9
$SNAPSTYLE
 70
    0
  9
$GRIDUNIT
 10
0
 20
0
  9
$PLIMMIN
 10
0
 20
0
  9
$PLIMMAX
 10
297
 20
210
  9
$UNITMODE
 70
    0
  9
$VISRETAIN
 70
    1
  9
$PLINEGEN
 70
    0
  9
$PSLTSCALE
 70
    1
  9
$TREEDEPTH
 70
 3020
  9
$CMLSTYLE
  2
Standard
  9
$CMLJUST
 70
    0
  9
$CMLSCALE
 40
20
  9
$PROXYGRAPHICS
 70
    1
  9
$MEASUREMENT
 70
    1
  9
$CELWEIGHT
370
   -1
  9
$ENDCAPS
280
    0
  9
$JOINSTYLE
280
    0
  9
$LWDISPLAY
290
    0
  9
$INSUNITS
 70
    4
  9
$HYPERLINKBASE
  1

  9
$STYLESHEET
  1

  9
$XEDIT
290
    1
  9
$CEPSNTYPE
380
    0
  9
$PSTYLEMODE
290
    1
  9
$EXTNAMES
290
    1
  9
$PSVPSCALE
 40
1
  9
$OLESTARTUP
290
    0
  9
$SORTENTS
280
  127
  9
$INDEXCTL
280
    0
  9
$HIDETEXT
280
    1
  9
$XCLIPFRAME
290
    0
  9
$HALOGAP
280
    0
  9
$OBSCOLOR
 70
  257
  9
$OBSLTYPE
280
    0
  9
$INTERSECTIONDISPLAY
280
    0
  9
$INTERSECTIONCOLOR
 70
  257
  9
$DIMASSOC
280
    1
  9
$PROJECTNAME
  1

  9
$CAMERADISPLAY
290
    0
  9
$LENSLENGTH
 40
50
  9
$CAMERAHEIGHT
 40
0
  9
$STEPSPERSEC
 40
2
  9
$STEPSIZE
 40
50
  9
$3DDWFPREC
 40
2
  9
$PSOLWIDTH
 40
5
  9
$PSOLHEIGHT
 40
80
  9
$LOFTANG1
 40
1.570796326794897
  9
$LOFTANG2
 40
1.570796326794897
  9
$LOFTMAG1
 40
0
  9
$LOFTMAG2
 40
0
  9
$LOFTPARAM
 70
    7
  9
$LOFTNORMALS
280
    1
  9
$LATITUDE
 40
1
  9
$LONGITUDE
 40
1
  9
$NORTHDIRECTION
 40
0
  9
$TIMEZONE
 70
-8000
  9
$LIGHTGLYPHDISPLAY
280
    1
  9
$TILEMODELIGHTSYNCH
280
    1
  9
$SOLIDHIST
280
    1
  9
$SHOWHIST
280
    1
  9
$DWFFRAME
280
    2
  9
$DGNFRAME
280
    0
  9
$REALWORLDSCALE
290
    1
  9
$INTERFERECOLOR
 62
    1
  9
$CSHADOW
280
    0
  9
$SHADOWPLANELOCATION
 40
0
  0
ENDSEC
  0
SECTION
  2
CLASSES
  0
ENDSEC
  0
SECTION
  2
TABLES
  0
TABLE
  2
VPORT
  5
8
330
0
100
AcDbSymbolTable
 70
    1
  0
VPORT
  5
31
330
2
100
AcDbSymbolTableRecord
100
AcDbViewportTableRecord
  2
*ACTIVE
 70
    0
 10
0
 20
0
 11
1
 21
1
 12
344.2056478350844
 22
96.51423872298895
 13
0
 23
0
 14
10
 24
10
 15
10
 25
10
 16
0
 26
0
 36
1
 17
0
 27
0
 37
0
 40
400.0643311313984
 41
2.652433817250214
 42
50
 43
0
 44
0
 50
0
 51
0
 71
    0
 72
  100
 73
    1
 74
    3
 75
    0
 76
    1
 77
    0
 78
    0
281
    0
 65
    1
110
0
120
0
130
0
111
1
121
0
131
0
112
0
122
1
132
0
 79
    0
146
0
348
10020
 60
    7
 61
    5
292
1
282
    1
141
0
142
0
 63
  250
421
3358443
  0
ENDTAB
  0
TABLE
  2
LTYPE
  5
5
330
0
100
AcDbSymbolTable
 70
    4
  0
LTYPE
  5
14
330
5
100
AcDbSymbolTableRecord
100
AcDbLinetypeTableRecord
  2
ByBlock
 70
    0
  3

 72
   65
 73
    0
 40
0
  0
LTYPE
  5
15
330
5
100
AcDbSymbolTableRecord
100
AcDbLinetypeTableRecord
  2
ByLayer
 70
    0
  3

 72
   65
 73
    0
 40
0
  0
LTYPE
  5
16
330
5
100
AcDbSymbolTableRecord
100
AcDbLinetypeTableRecord
  2
Continuous
 70
    0
  3
Solid line
 72
   65
 73
    0
 40
0
  0
LTYPE
  5
32
330
5
100
AcDbSymbolTableRecord
100
AcDbLinetypeTableRecord
  2
DOT
 70
    0
  3
Dot . . . . . . . . . . . . . . . . . . . . . .
 72
   65
 73
    2
 40
6.35
 49
0
 74
    0
 49
-6.35
 74
    0
  0
LTYPE
  5
33
330
5
100
AcDbSymbolTableRecord
100
AcDbLinetypeTableRecord
  2
DOTTINY
 70
    0
  3
Dot (.15x) .....................................
 72
   65
 73
    2
 40
0.9525
 49
0
 74
    0
 49
-0.9525
 74
    0
  0
LTYPE
  5
34
330
5
100
AcDbSymbolTableRecord
100
AcDbLinetypeTableRecord
  2
DOT2
 70
    0
  3
Dot (.5x) .....................................
 72
   65
 73
    2
 40
3.175
 49
0
 74
    0
 49
-3.175
 74
    0
  0
LTYPE
  5
35
330
5
100
AcDbSymbolTableRecord
100
AcDbLinetypeTableRecord
  2
DOTX2
 70
    0
  3
Dot (2x) .  .  .  .  .  .  .  .  .  .  .  .  .
 72
   65
 73
    2
 40
12.7
 49
0
 74
    0
 49
-12.7
 74
    0
  0
LTYPE
  5
36
330
5
100
AcDbSymbolTableRecord
100
AcDbLinetypeTableRecord
  2
DASHED
 70
    0
  3
Dashed _ _ _ _ _ _ _ _ _ _ _ _ _ _ _ _ _
 72
   65
 73
    2
 40
19.05
 49
12.7
 74
    0
 49
-6.35
 74
    0
  0
LTYPE
  5
37
330
5
100
AcDbSymbolTableRecord
100
AcDbLinetypeTableRecord
  2
DASHEDTINY
 70
    0
  3
Dashed (.15x) _ _ _ _ _ _ _ _ _ _ _ _ _ _ _ _ _
 72
   65
 73
    2
 40
2.8575
 49
1.905
 74
    0
 49
-0.9525
 74
    0
  0
LTYPE
  5
38
330
5
100
AcDbSymbolTableRecord
100
AcDbLinetypeTableRecord
  2
DASHED2
 70
    0
  3
Dashed (.5x) _ _ _ _ _ _ _ _ _ _ _ _ _ _ _ _ _
 72
   65
 73
    2
 40
9.524999999999999
 49
6.35
 74
    0
 49
-3.175
 74
    0
  0
LTYPE
  5
39
330
5
100
AcDbSymbolTableRecord
100
AcDbLinetypeTableRecord
  2
DASHEDX2
 70
    0
  3
Dashed (2x) ____  ____  ____  ____  ____  ___
 72
   65
 73
    2
 40
38.09999999999999
 49
25.4
 74
    0
 49
-12.7
 74
    0
  0
LTYPE
  5
3A
330
5
100
AcDbSymbolTableRecord
100
AcDbLinetypeTableRecord
  2
DASHDOT
 70
    0
  3
Dash dot __ . __ . __ . __ . __ . __ . __ . __
 72
   65
 73
    4
 40
25.4
 49
12.7
 74
    0
 49
-6.35
 74
    0
 49
0
 74
    0
 49
-6.35
 74
    0
  0
LTYPE
  5
3B
330
5
100
AcDbSymbolTableRecord
100
AcDbLinetypeTableRecord
  2
DASHDOTTINY
 70
    0
  3
Dash dot (.15x) _._._._._._._._._._._._._._._.
 72
   65
 73
    4
 40
3.81
 49
1.905
 74
    0
 49
-0.9525
 74
    0
 49
0
 74
    0
 49
-0.9525
 74
    0
  0
LTYPE
  5
3C
330
5
100
AcDbSymbolTableRecord
100
AcDbLinetypeTableRecord
  2
DASHDOT2
 70
    0
  3
Dash dot (.5x) _._._._._._._._._._._._._._._.
 72
   65
 73
    4
 40
12.7
 49
6.35
 74
    0
 49
-3.175
 74
    0
 49
0
 74
    0
 49
-3.175
 74
    0
  0
LTYPE
  5
3D
330
5
100
AcDbSymbolTableRecord
100
AcDbLinetypeTableRecord
  2
DASHDOTX2
 70
    0
  3
Dash dot (2x) ____  .  ____  .  ____  .  ___
 72
   65
 73
    4
 40
50.8
 49
25.4
 74
    0
 49
-12.7
 74
    0
 49
0
 74
    0
 49
-12.7
 74
    0
  0
LTYPE
  5
3E
330
5
100
AcDbSymbolTableRecord
100
AcDbLinetypeTableRecord
  2
DIVIDE
 70
    0
  3
Divide ____ . . ____ . . ____ . . ____ . . ____
 72
   65
 73
    6
 40
31.75
 49
12.7
 74
    0
 49
-6.35
 74
    0
 49
0
 74
    0
 49
-6.35
 74
    0
 49
0
 74
    0
 49
-6.35
 74
    0
  0
LTYPE
  5
3F
330
5
100
AcDbSymbolTableRecord
100
AcDbLinetypeTableRecord
  2
DIVIDETINY
 70
    0
  3
Divide (.15x) __..__..__..__..__..__..__..__.._
 72
   65
 73
    6
 40
4.7625
 49
1.905
 74
    0
 49
-0.9525
 74
    0
 49
0
 74
    0
 49
-0.9525
 74
    0
 49
0
 74
    0
 49
-0.9525
 74
    0
  0
LTYPE
  5
40
330
5
100
AcDbSymbolTableRecord
100
AcDbLinetypeTableRecord
  2
DIVIDE2
 70
    0
  3
Divide (.5x) __..__..__..__..__..__..__..__.._
 72
   65
 73
    6
 40
15.875
 49
6.35
 74
    0
 49
-3.175
 74
    0
 49
0
 74
    0
 49
-3.175
 74
    0
 49
0
 74
    0
 49
-3.175
 74
    0
  0
LTYPE
  5
41
330
5
100
AcDbSymbolTableRecord
100
AcDbLinetypeTableRecord
  2
DIVIDEX2
 70
    0
  3
Divide (2x) ________  .  .  ________  .  .  _
 72
   65
 73
    6
 40
63.5
 49
25.4
 74
    0
 49
-12.7
 74
    0
 49
0
 74
    0
 49
-12.7
 74
    0
 49
0
 74
    0
 49
-12.7
 74
    0
  0
LTYPE
  5
42
330
5
100
AcDbSymbolTableRecord
100
AcDbLinetypeTableRecord
  2
BORDER
 70
    0
  3
Border __ __ . __ __ . __ __ . __ __ . __ __ .
 72
   65
 73
    6
 40
44.45
 49
12.7
 74
    0
 49
-6.35
 74
    0
 49
12.7
 74
    0
 49
-6.35
 74
    0
 49
0
 74
    0
 49
-6.35
 74
    0
  0
LTYPE
  5
43
330
5
100
AcDbSymbolTableRecord
100
AcDbLinetypeTableRecord
  2
BORDERTINY
 70
    0
  3
Border (.15x) __.__.__.__.__.__.__.__.__.__.__.
 72
   65
 73
    6
 40
6.6675
 49
1.905
 74
    0
 49
-0.9525
 74
    0
 49
1.905
 74
    0
 49
-0.9525
 74
    0
 49
0
 74
    0
 49
-0.9525
 74
    0
  0
LTYPE
  5
44
330
5
100
AcDbSymbolTableRecord
100
AcDbLinetypeTableRecord
  2
BORDER2
 70
    0
  3
Border (.5x) __.__.__.__.__.__.__.__.__.__.__.
 72
   65
 73
    6
 40
22.225
 49
6.35
 74
    0
 49
-3.175
 74
    0
 49
6.35
 74
    0
 49
-3.175
 74
    0
 49
0
 74
    0
 49
-3.175
 74
    0
  0
LTYPE
  5
45
330
5
100
AcDbSymbolTableRecord
100
AcDbLinetypeTableRecord
  2
BORDERX2
 70
    0
  3
Border (2x) ____  ____  .  ____  ____  .  ___
 72
   65
 73
    6
 40
88.89999999999999
 49
25.4
 74
    0
 49
-12.7
 74
    0
 49
25.4
 74
    0
 49
-12.7
 74
    0
 49
0
 74
    0
 49
-12.7
 74
    0
  0
LTYPE
  5
46
330
5
100
AcDbSymbolTableRecord
100
AcDbLinetypeTableRecord
  2
CENTER
 70
    0
  3
Center ____ _ ____ _ ____ _ ____ _ ____ _ ____
 72
   65
 73
    4
 40
50.8
 49
31.75
 74
    0
 49
-6.35
 74
    0
 49
6.35
 74
    0
 49
-6.35
 74
    0
  0
LTYPE
  5
47
330
5
100
AcDbSymbolTableRecord
100
AcDbLinetypeTableRecord
  2
CENTERTINY
 70
    0
  3
Center (.15x) ___ _ ___ _ ___ _ ___ _ ___ _ ___
 72
   65
 73
    4
 40
7.62
 49
4.7625
 74
    0
 49
-0.9525
 74
    0
 49
0.9525
 74
    0
 49
-0.9525
 74
    0
  0
LTYPE
  5
48
330
5
100
AcDbSymbolTableRecord
100
AcDbLinetypeTableRecord
  2
CENTER2
 70
    0
  3
Center (.5x) ___ _ ___ _ ___ _ ___ _ ___ _ ___
 72
   65
 73
    4
 40
28.575
 49
19.05
 74
    0
 49
-3.175
 74
    0
 49
3.175
 74
    0
 49
-3.175
 74
    0
  0
LTYPE
  5
49
330
5
100
AcDbSymbolTableRecord
100
AcDbLinetypeTableRecord
  2
CENTERX2
 70
    0
  3
Center (2x) ________  __  ________  __  _____
 72
   65
 73
    4
 40
101.6
 49
63.5
 74
    0
 49
-12.7
 74
    0
 49
12.7
 74
    0
 49
-12.7
 74
    0
  0
ENDTAB
  0
TABLE
  2
LAYER
  5
2
330
0
100
AcDbSymbolTable
 70
    1
  0
LAYER
  5
10
330
2
100
AcDbSymbolTableRecord
100
AcDbLayerTableRecord
  2
0
 70
    5
 62
    7
  6
CONTINUOUS
290
0
370
    0
390
F
  0
LAYER
  5
4A
330
2
100
AcDbSymbolTableRecord
100
AcDbLayerTableRecord
  2
CAD Buttons
 70
    0
 62
    1
  6
CONTINUOUS
370
   20
390
F
  0
LAYER
  5
4B
330
2
100
AcDbSymbolTableRecord
100
AcDbLayerTableRecord
  2
CAD Geometry
 70
    0
 62
    3
  6
CONTINUOUS
370
    0
390
F
  0
ENDTAB
  0
TABLE
  2
STYLE
  5
3
330
0
100
AcDbSymbolTable
 70
    3
  0
STYLE
  5
4C
330
2
100
AcDbSymbolTableRecord
100
AcDbTextStyleTableRecord
  2
Standard
 70
    0
 40
0
 41
1
 50
0
 71
    0
 42
1
  3
txt
  4

  0
ENDTAB
  0
TABLE
  2
VIEW
  5
6
330
0
100
AcDbSymbolTable
 70
    0
  0
ENDTAB
  0
TABLE
  2
UCS
  5
7
330
0
100
AcDbSymbolTable
 70
    0
  0
ENDTAB
  0
TABLE
  2
APPID
  5
9
330
0
100
AcDbSymbolTable
 70
    1
  0
APPID
  5
12
330
9
100
AcDbSymbolTableRecord
100
AcDbRegAppTableRecord
  2
ACAD
 70
    0
  0
APPID
  5
4D
330
9
100
AcDbSymbolTableRecord
100
AcDbRegAppTableRecord
  2
LibreCad
 70
    0
  0
ENDTAB
  0
TABLE
  2
DIMSTYLE
  5
A
330
0
100
AcDbSymbolTable
 70
    1
100
AcDbDimStyleTable
 71
    1
  0
DIMSTYLE
105
4E
330
A
100
AcDbSymbolTableRecord
100
AcDbDimStyleTableRecord
  2
Standard
 70
    0
 40
2.5
 41
2.5
 42
0.625
 43
0.38
 44
1.25
 45
0
 46
0
 47
0
 48
0
 49
1
140
2.5
141
0.09
142
0
143
25.4
144
1
145
0
146
1
147
0.625
148
0
 71
    0
 72
    0
 73
    0
 74
    1
 75
    0
 76
    0
 77
    0
 78
    8
 79
    0
170
    0
171
    2
172
    0
173
    0
174
    0
175
    0
176
    0
177
    0
178
    0
179
    0
271
    2
272
    4
273
    2
274
    2
275
    0
276
    0
277
    2
278
   44
279
    0
280
    0
281
    0
282
    0
283
    1
284
    0
285
    0
286
    0
288
    0
289
    3
340
standard
341

371
   -2
372
   -2
  0
ENDTAB
  0
TABLE
  2
BLOCK_RECORD
  5
1
330
0
100
AcDbSymbolTable
 70
    2
  0
BLOCK_RECORD
  5
1F
330
1
100
AcDbSymbolTableRecord
100
AcDbBlockTableRecord
  2
*Model_Space
 70
    0
280
    1
281
    0
  0
BLOCK_RECORD
  5
1E
330
1
100
AcDbSymbolTableRecord
100
AcDbBlockTableRecord
  2
*Paper_Space
 70
    0
280
    1
281
    0
  0
BLOCK_RECORD
  5
4F
330
1
100
AcDbSymbolTableRecord
100
AcDbBlockTableRecord
  2
KeySwitch
 70
    0
280
    1
281
    0
  0
ENDTAB
  0
ENDSEC
  0
SECTION
  2
BLOCKS
  0
BLOCK
  5
20
330
1F
100
AcDbEntity
  8
0
100
AcDbBlockBegin
  2
*Model_Space
 70
    0
 10
0
 20
0
 30
0
  3
*Model_Space
  1

  0
ENDBLK
  5
21
330
1F
100
AcDbEntity
  8
0
100
AcDbBlockEnd
  0
BLOCK
  5
1C
330
1B
100
AcDbEntity
  8
0
100
AcDbBlockBegin
  2
*Paper_Space
 70
    0
 10
0
 20
0
 30
0
  3
*Paper_Space
  1

  0
ENDBLK
  5
1D
330
1F
100
AcDbEntity
  8
0
100
AcDbBlockEnd
  0
BLOCK
  5
50
330
4F
100
AcDbEntity
  8
0
100
AcDbBlockBegin
  2
KeySwitch
 70
    0
 10
0
 20
0
  3
KeySwitch
  1

  0
CIRCLE
  5
52
100
AcDbEntity
  8
CAD Buttons
  6
ByLayer
 62
   96
420
32768
370
   -3
100
AcDbCircle
 10
0
 20
0
 40
2
  0
CIRCLE
  5
53
100
AcDbEntity
  8
CAD Buttons
  6
ByLayer
 62
    1
370
   -3
100
AcDbCircle
 10
-2.54
 20
-3.81
 40
1
  0
CIRCLE
  5
54
100
AcDbEntity
  8
CAD Buttons
  6
ByLayer
 62
    1
370
   -3
100
AcDbCircle
 10
-2.54
 20
-3.81
 40
0.1
  0
CIRCLE
  5
55
100
AcDbEntity
  8
CAD Buttons
  6
ByLayer
 62
    1
370
   -3
100
AcDbCircle
 10
-5.08
 20
2.54
 40
0.1
  0
CIRCLE
  5
56
100
AcDbEntity
  8
CAD Buttons
  6
ByLayer
 62
    1
370
   -3
100
AcDbCircle
 10
-5.08
 20
2.54
 40
1
  0
CIRCLE
  5
57
100
AcDbEntity
  8
CAD Buttons
  6
ByLayer
 62
    4
370
   -3
100
AcDbCircle
 10
0
 20
0
 40
6.25
  0
CIRCLE
  5
58
100
AcDbEntity
  8
CAD Buttons
  6
ByLayer
 62
   96
420
32768
370
   -3
100
AcDbCircle
 10
0
 20
0
 40
0.1
  0
LWPOLYLINE
  5
59
100
AcDbEntity
  8
CAD Buttons
  6
ByLayer
 62
    7
370
   -3
100
AcDbPolyline
 90
    4
 70
    1
 43
0
 10
-7
 20
-7
 10
7
 20
-7
 10
7
 20
7
 10
-7
 20
7
  0
ENDBLK
  5
51
330
4F
100
AcDbEntity
  8
0
100
AcDbBlockEnd
  0
ENDSEC
  0
SECTION
  2
ENTITIES
  0
IMAGE
  5
5C
100
AcDbEntity
  8
0
  6
ByLayer
 62
    2
370
   -1
100
AcDbRasterImage
 10
-300
 20
0
 30
0
 11
0.09999999999999999
 21
0
 31
0
 12
6.123031769111886e-18
 22
0.09999999999999999
 32
0
 13
2400
 23
1028
340
5A
 70
    1
280
    0
281
   50
282
   50
283
    0
360
5B
  0
IMAGE
  5
5F
100
AcDbEntity
  8
0
  6
ByLayer
 62
    2
370
   -1
100
AcDbRasterImage
 10
0
 20
0
 30
0
 11
0.1
 21
0
 31
0
 12
6.123031769111887e-18
 22
0.1
 32
0
 13
2400
 23
1018
340
5D
 70
    1
280
    0
281
   50
282
   50
283
    0
360
5E
  0
INSERT
  5
60
100
AcDbEntity
  8
CAD Buttons
  6
ByLayer
 62
    2
370
   -1
100
AcDbBlockReference
  2
KeySwitch
 10
138.5751938995964
 20
28.0882730728809
 30
0
 41
1
 42
1
 43
0
 50
111.8847
 70
    1
 71
    1
 44
1
 45
1
  0
INSERT
  5
61
100
AcDbEntity
  8
CAD Buttons
  6
ByLayer
 62
    2
370
   -1
100
AcDbBlockReference
  2
KeySwitch
 10
131.4933124434025
 20
42.63484038830844
 30
0
 41
1
 42
1
 43
0
 50
111.731
 70
    1
 71
    1
 44
1
 45
1
  0
INSERT
  5
62
100
AcDbEntity
  8
CAD Buttons
  6
ByLayer
 62
    2
370
   -1
100
AcDbBlockReference
  2
KeySwitch
 10
115.2705870624334
 20
68.89300877006336
 30
0
 41
1
 42
1
 43
0
 50
127.538
 70
    1
 71
    1
 44
1
 45
1
  0
INSERT
  5
63
100
AcDbEntity
  8
CAD Buttons
  6
ByLayer
 62
    2
370
   -1
100
AcDbBlockReference
  2
KeySwitch
 10
104.1405299644194
 20
78.3902457500225
 30
0
 41
1
 42
1
 43
0
 50
127.923
 70
    1
 71
    1
 44
1
 45
1
  0
INSERT
  5
64
100
AcDbEntity
  8
CAD Buttons
  6
ByLayer
 62
    2
370
   -1
100
AcDbBlockReference
  2
KeySwitch
 10
116.4068798155144
 20
88.63083474022898
 30
0
 41
1
 42
1
 43
0
 50
134.036
 70
    1
 71
    1
 44
1
 45
1
  0
INSERT
  5
65
100
AcDbEntity
  8
CAD Buttons
  6
ByLayer
 62
    2
370
   -1
100
AcDbBlockReference
  2
KeySwitch
 10
127.3068732617249
 20
79.37215304846715
 30
0
 41
1
 42
1
 43
0
 50
130.921
 70
    1
 71
    1
 44
1
 45
1
  0
INSERT
  5
66
100
AcDbEntity
  8
CAD Buttons
  6
ByLayer
 62
    2
370
   -1
100
AcDbBlockReference
  2
KeySwitch
 10
137.9531367446629
 20
67.94778153916802
 30
0
 41
1
 42
1
 43
0
 50
123.527
 70
    1
 71
    1
 44
1
 45
1
  0
INSERT
  5
67
100
AcDbEntity
  8
CAD Buttons
  6
ByLayer
 62
    2
370
   -1
100
AcDbBlockReference
  2
KeySwitch
 10
160.2993437719792
 20
26.4135038095918
 30
0
 41
1
 42
1
 43
0
 50
110.213
 70
    1
 71
    1
 44
1
 45
1
  0
INSERT
  5
68
100
AcDbEntity
  8
CAD Buttons
  6
ByLayer
 62
    2
370
   -1
100
AcDbBlockReference
  2
KeySwitch
 10
166.9506522411282
 20
51.25050034498705
 30
0
 41
1
 42
1
 43
0
 50
118.619
 70
    1
 71
    1
 44
1
 45
1
  0
INSERT
  5
69
100
AcDbEntity
  8
CAD Buttons
  6
ByLayer
 62
    2
370
   -1
100
AcDbBlockReference
  2
KeySwitch
 10
174.7786593903916
 20
37.87642510266132
 30
0
 41
1
 42
1
 43
0
 50
115.332
 70
    1
 71
    1
 44
1
 45
1
  0
INSERT
  5
6A
100
AcDbEntity
  8
CAD Buttons
  6
ByLayer
 62
    2
370
   -1
100
AcDbBlockReference
  2
KeySwitch
 10
181.8799419932218
 20
23.59032133718978
 30
0
 41
1
 42
1
 43
0
 50
115.446
 70
    1
 71
    1
 44
1
 45
1
  0
INSERT
  5
6B
100
AcDbEntity
  8
CAD Buttons
  6
ByLayer
 62
    2
370
   -1
100
AcDbBlockReference
  2
KeySwitch
 10
180.903071276109
 20
60.58315919468036
 30
0
 41
1
 42
1
 43
0
 50
119.292
 70
    1
 71
    1
 44
1
 45
1
  0
INSERT
  5
6C
100
AcDbEntity
  8
CAD Buttons
  6
ByLayer
 62
    2
370
   -1
100
AcDbBlockReference
  2
KeySwitch
 10
188.3097993122789
 20
46.44039751931221
 30
0
 41
1
 42
1
 43
0
 50
118.863
 70
    1
 71
    1
 44
1
 45
1
  0
INSERT
  5
6D
100
AcDbEntity
  8
CAD Buttons
  6
ByLayer
 62
    2
370
   -1
100
AcDbBlockReference
  2
KeySwitch
 10
195.4709283369042
 20
32.3132210638359
 30
0
 41
1
 42
1
 43
0
 50
117.17
 70
    1
 71
    1
 44
1
 45
1
  0
INSERT
  5
6E
100
AcDbEntity
  8
CAD Buttons
  6
ByLayer
 62
    2
370
   -1
100
AcDbBlockReference
  2
KeySwitch
 10
173.2854145047202
 20
72.79094248216313
 30
0
 41
1
 42
1
 43
0
 50
120.941
 70
    1
 71
    1
 44
1
 45
1
  0
INSERT
  5
6F
100
AcDbEntity
  8
CAD Buttons
  6
ByLayer
 62
    2
370
   -1
100
AcDbBlockReference
  2
KeySwitch
 10
164.8929966084317
 20
84.59977307130215
 30
0
 41
1
 42
1
 43
0
 50
120.046
 70
    1
 71
    1
 44
1
 45
1
  0
INSERT
  5
70
100
AcDbEntity
  8
CAD Buttons
  6
ByLayer
 62
    2
370
   -1
100
AcDbBlockReference
  2
KeySwitch
 10
110.0426188118942
 20
42.41804277108334
 30
0
 41
1
 42
1
 43
0
 50
123.187
 70
    1
 71
    1
 44
1
 45
1
  0
INSERT
  5
71
100
AcDbEntity
  8
CAD Buttons
  6
ByLayer
 62
    2
370
   -1
100
AcDbBlockReference
  2
KeySwitch
 10
117.2816989806322
 20
28.61462912705754
 30
0
 41
1
 42
1
 43
0
 50
119.706
 70
    1
 71
    1
 44
1
 45
1
  0
INSERT
  5
72
100
AcDbEntity
  8
CAD Buttons
  6
ByLayer
 62
    2
370
   -1
100
AcDbBlockReference
  2
KeySwitch
 10
70.19764119026635
 20
64.93702659267446
 30
0
 41
1
 42
1
 43
0
 50
132.509
 70
    1
 71
    1
 44
1
 45
1
  0
INSERT
  5
73
100
AcDbEntity
  8
CAD Buttons
  6
ByLayer
 62
    2
370
   -1
100
AcDbBlockReference
  2
KeySwitch
 10
82.31913361508792
 20
55.26190039897764
 30
0
 41
1
 42
1
 43
0
 50
128.56
 70
    1
 71
    1
 44
1
 45
1
  0
INSERT
  5
74
100
AcDbEntity
  8
CAD Buttons
  6
ByLayer
 62
    2
370
   -1
100
AcDbBlockReference
  2
KeySwitch
 10
89.90700339525425
 20
40.08616083864156
 30
0
 41
1
 42
1
 43
0
 50
124.384
 70
    1
 71
    1
 44
1
 45
1
  0
INSERT
  5
75
100
AcDbEntity
  8
CAD Buttons
  6
ByLayer
 62
    2
370
   -1
100
AcDbBlockReference
  2
KeySwitch
 10
61.18414022740124
 20
51.81959849870643
 30
0
 41
1
 42
1
 43
0
 50
131.602
 70
    1
 71
    1
 44
1
 45
1
  0
INSERT
  5
76
100
AcDbEntity
  8
CAD Buttons
  6
ByLayer
 62
    2
370
   -1
100
AcDbBlockReference
  2
KeySwitch
 10
67.22419330307014
 20
37.46975617037953
 30
0
 41
1
 42
1
 43
0
 50
126.961
 70
    1
 71
    1
 44
1
 45
1
  0
INSERT
  5
77
100
AcDbEntity
  8
CAD Buttons
  6
ByLayer
 62
    2
370
   -1
100
AcDbBlockReference
  2
KeySwitch
 10
47.30344646154639
 20
60.47602541391652
 30
0
 41
1
 42
1
 43
0
 50
130.948
 70
    1
 71
    1
 44
1
 45
1
  0
INSERT
  5
78
100
AcDbEntity
  8
CAD Buttons
  6
ByLayer
 62
    2
370
   -1
100
AcDbBlockReference
  2
KeySwitch
 10
36.44553793211671
 20
71.54435852724988
 30
0
 41
1
 42
1
 43
0
 50
131.587
 70
    1
 71
    1
 44
1
 45
1
  0
INSERT
  5
79
100
AcDbEntity
  8
CAD Buttons
  6
ByLayer
 62
    2
370
   -1
100
AcDbBlockReference
  2
KeySwitch
 10
39.48810967391065
 20
47.52896959926591
 30
0
 41
1
 42
1
 43
0
 50
131.585
 70
    1
 71
    1
 44
1
 45
1
  0
INSERT
  5
7A
100
AcDbEntity
  8
CAD Buttons
  6
ByLayer
 62
    2
370
   -1
100
AcDbBlockReference
  2
KeySwitch
 10
56.77255273721182
 20
72.7648211138912
 30
0
 41
1
 42
1
 43
0
 50
132.27
 70
    1
 71
    1
 44
1
 45
1
  0
INSERT
  5
7B
100
AcDbEntity
  8
CAD Buttons
  6
ByLayer
 62
    2
370
   -1
100
AcDbBlockReference
  2
KeySwitch
 10
75.24945981990582
 20
23.2818053254898
 30
0
 41
1
 42
1
 43
0
 50
126.404
 70
    1
 71
    1
 44
1
 45
1
  0
INSERT
  5
7C
100
AcDbEntity
  8
CAD Buttons
  6
ByLayer
 62
    1
370
   -1
100
AcDbBlockReference
  2
KeySwitch
 10
95.96499352334176
 20
26.62126060813681
 30
0
 41
1
 42
1
 43
0
 50
123.862
 70
    1
 71
    1
 44
1
 45
1
  0
INSERT
  5
7D
100
AcDbEntity
  8
CAD Buttons
  6
ByLayer
 62
    2
370
   -1
100
AcDbBlockReference
  2
KeySwitch
 10
125.4551369233713
 20
57.31965665536121
 30
0
 41
1
 42
1
 43
0
 50
122.27395
 70
    1
 71
    1
 44
1
 45
1
  0
INSERT
  5
7E
100
AcDbEntity
  8
CAD Buttons
  6
ByLayer
 62
    2
370
   -1
100
AcDbBlockReference
  2
KeySwitch
 10
103.1501310295817
 20
57.61425107282636
 30
0
 41
1
 42
1
 43
0
 50
126.27964
 70
    1
 71
    1
 44
1
 45
1
  0
INSERT
  5
7F
100
AcDbEntity
  8
CAD Buttons
  6
ByLayer
 62
    2
370
   -1
100
AcDbBlockReference
  2
KeySwitch
 10
92.08179791624841
 20
67.75671601698352
 30
0
 41
1
 42
1
 43
0
 50
129.79695
 70
    1
 71
    1
 44
1
 45
1
  0
INSERT
  5
80
100
AcDbEntity
  8
CAD Buttons
  6
ByLayer
 62
    2
370
   -1
100
AcDbBlockReference
  2
KeySwitch
 10
153.2075094013051
 20
41.40302366988394
 30
0
 41
1
 42
1
 43
0
 50
118.7646
 70
    1
 71
    1
 44
1
 45
1
  0
INSERT
  5
81
100
AcDbEntity
  8
CAD Buttons
  6
ByLayer
 62
    2
370
   -1
100
AcDbBlockReference
  2
KeySwitch
 10
146.6832566882125
 20
55.97886345371613
 30
0
 41
1
 42
1
 43
0
 50
122.12811
 70
    1
 71
    1
 44
1
 45
1
  0
INSERT
  5
82
100
AcDbEntity
  8
CAD Buttons
  6
ByLayer
 62
    2
370
   -1
100
AcDbBlockReference
  2
KeySwitch
 10
159.5064454871082
 20
64.62144093778554
 30
0
 41
1
 42
1
 43
0
 50
119.75737
 70
    1
 71
    1
 44
1
 45
1
  0
INSERT
  5
83
100
AcDbEntity
  8
CAD Buttons
  6
ByLayer
 62
    2
370
   -1
100
AcDbBlockReference
  2
KeySwitch
 10
80.04551171695847
 20
76.13161445635009
 30
0
 41
1
 42
1
 43
0
 50
131.71622
 70
    1
 71
    1
 44
1
 45
1
  0
INSERT
  5
84
100
AcDbEntity
  8
CAD Buttons
  6
ByLayer
 62
    2
370
   -1
100
AcDbBlockReference
  2
KeySwitch
 10
91.19801466385331
 20
87.2420324864642
 30
0
 41
1
 42
1
 43
0
 50
132.93595
 70
    1
 71
    1
 44
1
 45
1
  0
INSERT
  5
85
100
AcDbEntity
  8
CAD Buttons
  6
ByLayer
 62
    2
370
   -1
100
AcDbBlockReference
  2
KeySwitch
 10
67.16752718205348
 20
84.16983356147053
 30
0
 41
1
 42
1
 43
0
 50
132.65717
 70
    1
 71
    1
 44
1
 45
1
  0
INSERT
  5
86
100
AcDbEntity
  8
CAD Buttons
  6
ByLayer
 62
    2
370
   -1
100
AcDbBlockReference
  2
KeySwitch
 10
48.44460703001057
 20
86.41006147551531
 30
0
 41
1
 42
1
 43
0
 50
134.22802
 70
    1
 71
    1
 44
1
 45
1
  0
INSERT
  5
87
100
AcDbEntity
  8
CAD Buttons
  6
ByLayer
 62
    2
370
   -1
100
AcDbBlockReference
  2
KeySwitch
 10
54.037033146463
 20
16.24477787736349
 30
0
 41
1
 42
1
 43
0
 50
121.676
 70
    1
 71
    1
 44
1
 45
1
  0
INSERT
  5
88
100
AcDbEntity
  8
CAD Buttons
  6
ByLayer
 62
    2
370
   -1
100
AcDbBlockReference
  2
KeySwitch
 10
35.48395675561564
 20
9.994105251352297
 30
0
 41
1
 42
1
 43
0
 50
120.161
 70
    1
 71
    1
 44
1
 45
1
  0
INSERT
  5
89
100
AcDbEntity
  8
CAD Buttons
  6
ByLayer
 62
    2
370
   -1
100
AcDbBlockReference
  2
KeySwitch
 10
47.32419432551842
 20
32.58622480857234
 30
0
 41
1
 42
1
 43
0
 50
125.8800000000001
 70
    1
 71
    1
 44
1
 45
1
  0
INSERT
  5
8A
100
AcDbEntity
  8
CAD Buttons
  6
ByLayer
 62
    2
370
   -1
100
AcDbBlockReference
  2
KeySwitch
 10
200.8713077944467
 20
15.99226837667918
 30
0
 41
1
 42
1
 43
0
 50
113.077
 70
    1
 71
    1
 44
1
 45
1
  0
INSERT
  5
8B
100
AcDbEntity
  8
CAD Buttons
  6
ByLayer
 62
    2
370
   -1
100
AcDbBlockReference
  2
KeySwitch
 10
151.0163369983199
 20
77.75714436700565
 30
0
 41
1
 42
1
 43
0
 50
131.28204
 70
    1
 71
    1
 44
1
 45
1
  0
INSERT
  5
8C
100
AcDbEntity
  8
CAD Buttons
  6
ByLayer
 62
    2
370
   -1
100
AcDbBlockReference
  2
KeySwitch
 10
141.1948957993676
 20
87.9574760717372
 30
0
 41
1
 42
1
 43
0
 50
132.62654
 70
    1
 71
    1
 44
1
 45
1
  0
INSERT
  5
8D
100
AcDbEntity
  8
CAD Buttons
  6
ByLayer
 62
    2
370
   -1
100
AcDbBlockReference
  2
KeySwitch
 10
217.4217683924318
 20
-98.00746434744416
 30
0
 41
1
 42
1
 43
0
 50
105.232
 70
    1
 71
    1
 44
1
 45
1
  0
INSERT
  5
8E
100
AcDbEntity
  8
CAD Buttons
  6
ByLayer
 62
    2
370
   -1
100
AcDbBlockReference
  2
KeySwitch
 10
211.5857290138013
 20
-81.25390930371002
 30
0
 41
1
 42
1
 43
0
 50
112.852
 70
    1
 71
    1
 44
1
 45
1
  0
INSERT
  5
8F
100
AcDbEntity
  8
CAD Buttons
  6
ByLayer
 62
    2
370
   -1
100
AcDbBlockReference
  2
KeySwitch
 10
202.9962596822368
 20
-64.27539159165647
 30
0
 41
1
 42
1
 43
0
 50
117.81
 70
    1
 71
    1
 44
1
 45
1
  0
INSERT
  5
90
100
AcDbEntity
  8
CAD Buttons
  6
ByLayer
 62
    2
370
   -1
100
AcDbBlockReference
  2
KeySwitch
 10
186.5817359444453
 20
-69.93595512602408
 30
0
 41
1
 42
1
 43
0
 50
116.304
 70
    1
 71
    1
 44
1
 45
1
  0
INSERT
  5
91
100
AcDbEntity
  8
CAD Buttons
  6
ByLayer
 62
    2
370
   -1
100
AcDbBlockReference
  2
KeySwitch
 10
194.4451513657375
 20
-48.85083149827972
 30
0
 41
1
 42
1
 43
0
 50
120.635
 70
    1
 71
    1
 44
1
 45
1
  0
INSERT
  5
92
100
AcDbEntity
  8
CAD Buttons
  6
ByLayer
 62
    2
370
   -1
100
AcDbBlockReference
  2
KeySwitch
 10
185.4975729250648
 20
-35.36302142310799
 30
0
 41
1
 42
1
 43
0
 50
120.827
 70
    1
 71
    1
 44
1
 45
1
  0
INSERT
  5
93
100
AcDbEntity
  8
CAD Buttons
  6
ByLayer
 62
    2
370
   -1
100
AcDbBlockReference
  2
KeySwitch
 10
169.8393106538884
 20
-40.94418421283379
 30
0
 41
1
 42
1
 43
0
 50
120.052
 70
    1
 71
    1
 44
1
 45
1
  0
INSERT
  5
94
100
AcDbEntity
  8
CAD Buttons
  6
ByLayer
 62
    2
370
   -1
100
AcDbBlockReference
  2
KeySwitch
 10
178.4518720669465
 20
-54.52418776388841
 30
0
 41
1
 42
1
 43
0
 50
120.445
 70
    1
 71
    1
 44
1
 45
1
  0
INSERT
  5
95
100
AcDbEntity
  8
CAD Buttons
  6
ByLayer
 62
    2
370
   -1
100
AcDbBlockReference
  2
KeySwitch
 10
194.7217375595036
 20
-84.89011798740404
 30
0
 41
1
 42
1
 43
0
 50
116.916
 70
    1
 71
    1
 44
1
 45
1
  0
INSERT
  5
96
100
AcDbEntity
  8
CAD Buttons
  6
ByLayer
 62
    2
370
   -1
100
AcDbBlockReference
  2
KeySwitch
 10
170.4402822900022
 20
-78.19554451550492
 30
0
 41
1
 42
1
 43
0
 50
114.794
 70
    1
 71
    1
 44
1
 45
1
  0
INSERT
  5
97
100
AcDbEntity
  8
CAD Buttons
  6
ByLayer
 62
    2
370
   -1
100
AcDbBlockReference
  2
KeySwitch
 10
161.9991057826087
 20
-62.2057567451243
 30
0
 41
1
 42
1
 43
0
 50
117.951
 70
    1
 71
    1
 44
1
 45
1
  0
INSERT
  5
98
100
AcDbEntity
  8
CAD Buttons
  6
ByLayer
 62
    2
370
   -1
100
AcDbBlockReference
  2
KeySwitch
 10
154.9119149385096
 20
-47.49983574362297
 30
0
 41
1
 42
1
 43
0
 50
116.935
 70
    1
 71
    1
 44
1
 45
1
  0
INSERT
  5
99
100
AcDbEntity
  8
CAD Buttons
  6
ByLayer
 62
    2
370
   -1
100
AcDbBlockReference
  2
KeySwitch
 10
160.2273080715817
 20
-28.58589517843991
 30
0
 41
1
 42
1
 43
0
 50
118.959
 70
    1
 71
    1
 44
1
 45
1
  0
INSERT
  5
9A
100
AcDbEntity
  8
CAD Buttons
  6
ByLayer
 62
    2
370
   -1
100
AcDbBlockReference
  2
KeySwitch
 10
147.1824474241737
 20
-74.29827612286493
 30
0
 41
1
 42
1
 43
0
 50
116.82
 70
    1
 71
    1
 44
1
 45
1
  0
INSERT
  5
9B
100
AcDbEntity
  8
CAD Buttons
  6
ByLayer
 62
    2
370
   -1
100
AcDbBlockReference
  2
KeySwitch
 10
138.7113718304063
 20
-59.86328513885073
 30
0
 41
1
 42
1
 43
0
 50
115.962
 70
    1
 71
    1
 44
1
 45
1
  0
INSERT
  5
9C
100
AcDbEntity
  8
CAD Buttons
  6
ByLayer
 62
    2
370
   -1
100
AcDbBlockReference
  2
KeySwitch
 10
123.9474879501433
 20
-72.36747338579247
 30
0
 41
1
 42
1
 43
0
 50
115.59
 70
    1
 71
    1
 44
1
 45
1
  0
INSERT
  5
9D
100
AcDbEntity
  8
CAD Buttons
  6
ByLayer
 62
    2
370
   -1
100
AcDbBlockReference
  2
KeySwitch
 10
116.1234093841733
 20
-56.99257419250682
 30
0
 41
1
 42
1
 43
0
 50
113.47
 70
    1
 71
    1
 44
1
 45
1
  0
INSERT
  5
9E
100
AcDbEntity
  8
CAD Buttons
  6
ByLayer
 62
    2
370
   -1
100
AcDbBlockReference
  2
KeySwitch
 10
131.2859465015984
 20
-44.00827233185997
 30
0
 41
1
 42
1
 43
0
 50
117.117
 70
    1
 71
    1
 44
1
 45
1
  0
INSERT
  5
9F
100
AcDbEntity
  8
CAD Buttons
  6
ByLayer
 62
    2
370
   -1
100
AcDbBlockReference
  2
KeySwitch
 10
107.3601864953266
 20
-42.86565453549554
 30
0
 41
1
 42
1
 43
0
 50
124.7701
 70
    1
 71
    1
 44
1
 45
1
  0
INSERT
  5
A0
100
AcDbEntity
  8
CAD Buttons
  6
ByLayer
 62
    2
370
   -1
100
AcDbBlockReference
  2
KeySwitch
 10
94.81157850401101
 20
-32.16317375901795
 30
0
 41
1
 42
1
 43
0
 50
131.66703
 70
    1
 71
    1
 44
1
 45
1
  0
INSERT
  5
A1
100
AcDbEntity
  8
CAD Buttons
  6
ByLayer
 62
    2
370
   -1
100
AcDbBlockReference
  2
KeySwitch
 10
56.14065961055459
 20
-29.16682335294098
 30
0
 41
1
 42
1
 43
0
 50
137.0243
 70
    1
 71
    1
 44
1
 45
1
  0
INSERT
  5
A2
100
AcDbEntity
  8
CAD Buttons
  6
ByLayer
 62
    2
370
   -1
100
AcDbBlockReference
  2
KeySwitch
 10
45.94208124854251
 20
-41.25402733754794
 30
0
 41
1
 42
1
 43
0
 50
133.19155
 70
    1
 71
    1
 44
1
 45
1
  0
INSERT
  5
A3
100
AcDbEntity
  8
CAD Buttons
  6
ByLayer
 62
    2
370
   -1
100
AcDbBlockReference
  2
KeySwitch
 10
59.48982238128951
 20
-48.73298480302349
 30
0
 41
1
 42
1
 43
0
 50
133.61724
 70
    1
 71
    1
 44
1
 45
1
  0
INSERT
  5
A4
100
AcDbEntity
  8
CAD Buttons
  6
ByLayer
 62
    2
370
   -1
100
AcDbBlockReference
  2
KeySwitch
 10
83.3116869009524
 20
-43.8981032091807
 30
0
 41
1
 42
1
 43
0
 50
131.5056
 70
    1
 71
    1
 44
1
 45
1
  0
INSERT
  5
A5
100
AcDbEntity
  8
CAD Buttons
  6
ByLayer
 62
    2
370
   -1
100
AcDbBlockReference
  2
KeySwitch
 10
68.85740546935989
 20
-36.67096249338447
 30
0
 41
1
 42
1
 43
0
 50
136.78117
 70
    1
 71
    1
 44
1
 45
1
  0
INSERT
  5
A6
100
AcDbEntity
  8
CAD Buttons
  6
ByLayer
 62
    2
370
   -1
100
AcDbBlockReference
  2
KeySwitch
 10
79.93734245524959
 20
-26.04429565691751
 30
0
 41
1
 42
1
 43
0
 50
135.82322
 70
    1
 71
    1
 44
1
 45
1
  0
INSERT
  5
A7
100
AcDbEntity
  8
CAD Buttons
  6
ByLayer
 62
    2
370
   -1
100
AcDbBlockReference
  2
KeySwitch
 10
107.3773358945936
 20
-23.55758093237827
 30
0
 41
1
 42
1
 43
0
 50
129.14001
 70
    1
 71
    1
 44
1
 45
1
  0
INSERT
  5
A8
100
AcDbEntity
  8
CAD Buttons
  6
ByLayer
 62
    2
370
   -1
100
AcDbBlockReference
  2
KeySwitch
 10
119.7805645880067
 20
-32.68403917928396
 30
0
 41
1
 42
1
 43
0
 50
123.68446
 70
    1
 71
    1
 44
1
 45
1
  0
INSERT
  5
A9
100
AcDbEntity
  8
CAD Buttons
  6
ByLayer
 62
    2
370
   -1
100
AcDbBlockReference
  2
KeySwitch
 10
133.2579573373863
 20
-24.64317925392949
 30
0
 41
1
 42
1
 43
0
 50
122.46647
 70
    1
 71
    1
 44
1
 45
1
  0
INSERT
  5
AA
100
AcDbEntity
  8
CAD Buttons
  6
ByLayer
 62
    2
370
   -1
100
AcDbBlockReference
  2
KeySwitch
 10
144.7339538855143
 20
-35.10375770791651
 30
0
 41
1
 42
1
 43
0
 50
120.28452
 70
    1
 71
    1
 44
1
 45
1
  0
INSERT
  5
AB
100
AcDbEntity
  8
CAD Buttons
  6
ByLayer
 62
    2
370
   -1
100
AcDbBlockReference
  2
KeySwitch
 10
91.32376807058179
 20
-58.65523656044067
 30
0
 41
1
 42
1
 43
0
 50
123.2821
 70
    1
 71
    1
 44
1
 45
1
  0
INSERT
  5
AC
100
AcDbEntity
  8
CAD Buttons
  6
ByLayer
 62
    2
370
   -1
100
AcDbBlockReference
  2
KeySwitch
 10
99.37862797917751
 20
-72.34949276332502
 30
0
 41
1
 42
1
 43
0
 50
123.97783
 70
    1
 71
    1
 44
1
 45
1
  0
INSERT
  5
AD
100
AcDbEntity
  8
CAD Buttons
  6
ByLayer
 62
    2
370
   -1
100
AcDbBlockReference
  2
KeySwitch
 10
67.38510801392269
 20
-62.16146180234914
 30
0
 41
1
 42
1
 43
0
 50
134.84799
 70
    1
 71
    1
 44
1
 45
1
  0
INSERT
  5
AE
100
AcDbEntity
  8
CAD Buttons
  6
ByLayer
 62
    2
370
   -1
100
AcDbBlockReference
  2
KeySwitch
 10
75.5733041400332
 20
-75.0853735753731
 30
0
 41
1
 42
1
 43
0
 50
132.9006
 70
    1
 71
    1
 44
1
 45
1
  0
INSERT
  5
AF
100
AcDbEntity
  8
CAD Buttons
  6
ByLayer
 62
    2
370
   -1
100
AcDbBlockReference
  2
KeySwitch
 10
44.65153700731179
 20
-68.56845062282036
 30
0
 41
1
 42
1
 43
0
 50
126.0017
 70
    1
 71
    1
 44
1
 45
1
  0
INSERT
  5
B0
100
AcDbEntity
  8
CAD Buttons
  6
ByLayer
 62
    2
370
   -1
100
AcDbBlockReference
  2
KeySwitch
 10
52.32621046975299
 20
-81.56085468233105
 30
0
 41
1
 42
1
 43
0
 50
126.3627
 70
    1
 71
    1
 44
1
 45
1
  0
INSERT
  5
B1
100
AcDbEntity
  8
CAD Buttons
  6
ByLayer
 62
    2
370
   -1
100
AcDbBlockReference
  2
KeySwitch
 10
34.23034334638658
 20
-86.67871262864543
 30
0
 41
1
 42
1
 43
0
 50
124.2755
 70
    1
 71
    1
 44
1
 45
1
  0
LWPOLYLINE
  5
B2
100
AcDbEntity
  8
CAD Geometry
  6
ByLayer
 62
    6
370
   25
100
AcDbPolyline
 90
    4
 70
    1
 43
0
 10
240.0010426569316
 20
-8.200503009838101
 10
0.001787897132203398
 20
-8.200503009838101
 10
0.001787897132203398
 20
-110.0035757942644
 10
240.0010426569316
 20
-110.0035757942644
  0
LWPOLYLINE
  5
B3
100
AcDbEntity
  8
CAD Geometry
  6
ByLayer
 62
    6
370
   25
100
AcDbPolyline
 90
    4
 70
    1
 43
0
 10
240.0010426569316
 20
101.7994969901619
 10
0.0017878971321833
 20
101.7994969901619
 10
0.0017878971321833
 20
-0.0035757942643666
 10
240.0010426569316
 20
-0.0035757942643666
  0
ENDSEC
  0
SECTION
  2
OBJECTS
  0
DICTIONARY
  5
C
330
0
100
AcDbDictionary
281
    1
  3
ACAD_GROUP
350
D
  3
ACAD_IMAGE_DICT
350
B4
  0
DICTIONARY
  5
D
330
C
100
AcDbDictionary
281
    1
  0
IMAGEDEF_REACTOR
  5
5B
330
5C
100
AcDbRasterImageDefReactor
 90
    2
330
5C
  0
IMAGEDEF_REACTOR
  5
5E
330
5F
100
AcDbRasterImageDefReactor
 90
    2
330
5F
  0
DICTIONARY
  5
B4
330
C
100
AcDbDictionary
281
    1
  3
BandoLeftButtons
350
5A
  3
BandoRightButtons
350
5D
  0
IMAGEDEF
  5
5A
102
{ACAD_REACTORS
330
5B
102
}
100
AcDbRasterImageDef
 90
    0
  1
D:/Documents/Bandoneon/Plans/BandoLeftButtons.png
 10
2400
 20
1028
 11
1
 21
1
280
    1
281
    0
  0
IMAGEDEF
  5
5D
102
{ACAD_REACTORS
330
5E
102
}
100
AcDbRasterImageDef
 90
    0
  1
D:/Documents/Bandoneon/Plans/BandoRightButtons.png
 10
2400
 20
1018
 11
1
 21
1
280
    1
281
    0
  0
PLOTSETTINGS
  5
B5
100
AcDbPlotSettings
  6
1x1
 40
0
 41
0
 42
0
 43
0
  0
ENDSEC
  0
EOF
